<?xml version="1.0" encoding="UTF-8" standalone="no"?>
<!-- Generator: Adobe Illustrator 15.0.0, SVG Export Plug-In . SVG Version: 6.00 Build 0)  -->

<svg
   xmlns:dc="http://purl.org/dc/elements/1.1/"
   xmlns:cc="http://creativecommons.org/ns#"
   xmlns:rdf="http://www.w3.org/1999/02/22-rdf-syntax-ns#"
   xmlns:svg="http://www.w3.org/2000/svg"
   xmlns="http://www.w3.org/2000/svg"
   xmlns:sodipodi="http://sodipodi.sourceforge.net/DTD/sodipodi-0.dtd"
   xmlns:inkscape="http://www.inkscape.org/namespaces/inkscape"
   version="1.1"
   id="Capa_1"
   x="0px"
   y="0px"
   width="600"
   height="200"
   viewBox="0 0 600 200"
   enable-background="new 0 0 800 600"
   xml:space="preserve"
   sodipodi:docname="logo-01.svg"
   inkscape:version="0.92.3 (2405546, 2018-03-11)"><metadata
   id="metadata267"><rdf:RDF><cc:Work
       rdf:about=""><dc:format>image/svg+xml</dc:format><dc:type
         rdf:resource="http://purl.org/dc/dcmitype/StillImage" /><dc:title></dc:title></cc:Work></rdf:RDF></metadata><defs
   id="defs265"><linearGradient
     id="SVGID_1_-9"
     gradientUnits="userSpaceOnUse"
     x1="201.3096"
     y1="231.7471"
     x2="245.43491"
     y2="318.3479"><stop
       offset="0"
       style="stop-color:#FCB44E"
       id="stop5076" /><stop
       offset="0.0997"
       style="stop-color:#F9A552"
       id="stop5078" /><stop
       offset="0.3602"
       style="stop-color:#F3815C"
       id="stop5080" /><stop
       offset="0.5"
       style="stop-color:#F07460"
       id="stop5082" /><stop
       offset="0.6979"
       style="stop-color:#ED6D62"
       id="stop5084" /><stop
       offset="0.9905"
       style="stop-color:#E65968"
       id="stop5086" /><stop
       offset="1"
       style="stop-color:#E65868"
       id="stop5088" /></linearGradient><linearGradient
     id="SVGID_2_-3"
     gradientUnits="userSpaceOnUse"
     x1="193.94341"
     y1="216.62601"
     x2="250.4213"
     y2="327.47021"><stop
       offset="0"
       style="stop-color:#FCB44E"
       id="stop5093" /><stop
       offset="0.0997"
       style="stop-color:#F9A552"
       id="stop5095" /><stop
       offset="0.3602"
       style="stop-color:#F3815C"
       id="stop5097" /><stop
       offset="0.5"
       style="stop-color:#F07460"
       id="stop5099" /><stop
       offset="0.6979"
       style="stop-color:#ED6D62"
       id="stop5101" /><stop
       offset="0.9905"
       style="stop-color:#E65968"
       id="stop5103" /><stop
       offset="1"
       style="stop-color:#E65868"
       id="stop5105" /></linearGradient><linearGradient
     id="SVGID_3_-0"
     gradientUnits="userSpaceOnUse"
     x1="186.52341"
     y1="200.5981"
     x2="255.22411"
     y2="335.43079"><stop
       offset="0"
       style="stop-color:#FCB44E"
       id="stop5110" /><stop
       offset="0.0997"
       style="stop-color:#F9A552"
       id="stop5112" /><stop
       offset="0.3602"
       style="stop-color:#F3815C"
       id="stop5114" /><stop
       offset="0.5"
       style="stop-color:#F07460"
       id="stop5116" /><stop
       offset="0.6979"
       style="stop-color:#ED6D62"
       id="stop5118" /><stop
       offset="0.9905"
       style="stop-color:#E65968"
       id="stop5120" /><stop
       offset="1"
       style="stop-color:#E65868"
       id="stop5122" /></linearGradient></defs><sodipodi:namedview
   pagecolor="#ffffff"
   bordercolor="#666666"
   borderopacity="1"
   objecttolerance="10"
   gridtolerance="10"
   guidetolerance="10"
   inkscape:pageopacity="0"
   inkscape:pageshadow="2"
   inkscape:window-width="1920"
   inkscape:window-height="1017"
   id="namedview263"
   showgrid="false"
   inkscape:zoom="1.79375"
   inkscape:cx="234.16576"
   inkscape:cy="24.720601"
   inkscape:window-x="-32000"
   inkscape:window-y="-32000"
   inkscape:window-maximized="0"
   inkscape:current-layer="Capa_1" />




<g
   id="g153"
   transform="translate(0,-400)">
	<g
   id="g135">
		<g
   id="g133">
			<path
   d="m -2107.786,274.61 h -4.77 v -19.64 h 4.77 c 2.17,0 3.26,1.32 3.26,3.95 v 11.75 c 0,2.63 -1.09,3.94 -3.26,3.94 z"
   id="path123"
   inkscape:connector-curvature="0"
   style="fill:#1d1d1b" />
			<path
   d="m -2108.166,280.83 4.12,18.97 c -1.29,0.04 -2.66,0.06 -4.12,0.06 -1.56,0 -3.02,-0.02 -4.39,-0.06 v -18.97 z"
   id="path125"
   inkscape:connector-curvature="0"
   style="fill:#1d1d1b" />
			<path
   d="m -2045.006,289 c 0,2.09 -0.101,4.15 -0.3,6.18 -3.74,-0.46 -8.23,-0.77 -14.061,-0.77 -12.35,0 -18.62,1.39 -24.68,2.75 -3.97,0.9 -7.8,1.75 -13.2,2.25 l -4.32,-19.26 c 2.881,-1.27 4.32,-4.27 4.32,-9.03 V 257.7 c 0,-6.22 -2.78,-9.33 -8.34,-9.33 h -14.26 v 50.97 c -4.99,-0.51 -8.641,-1.33 -12.42,-2.18 -6.07,-1.36 -12.351,-2.75 -24.7,-2.75 -5.82,0 -10.32,0.31 -14.05,0.77 -0.21,-2.03 -0.301,-4.09 -0.301,-6.18 0,-34.82 28.33,-63.16 63.15,-63.16 34.832,0 63.162,28.34 63.162,63.16 z"
   id="path127"
   inkscape:connector-curvature="0" />
			<path
   d="m -2028.185,289 c 0,3.185 -0.192,6.331 -0.569,9.409 -2.073,-0.38 -3.973,-0.814 -5.91,-1.25 -0.027,0 -0.041,-0.011 -0.068,-0.011 -0.448,-0.096 -0.893,-0.203 -1.341,-0.299 -2.034,-0.448 -4.15,-0.895 -6.548,-1.275 0.217,-2.157 0.324,-4.352 0.324,-6.575 0,-36.315 -29.551,-65.866 -65.867,-65.866 -36.315,0 -65.865,29.551 -65.865,65.866 0,2.223 0.106,4.417 0.323,6.575 -2.398,0.38 -4.512,0.827 -6.544,1.275 -0.448,0.096 -0.896,0.203 -1.345,0.299 -0.026,0 -0.043,0.011 -0.067,0.011 -1.938,0.436 -3.834,0.87 -5.911,1.25 -0.379,-3.078 -0.569,-6.224 -0.569,-9.409 0,-44.096 35.884,-79.979 79.979,-79.979 44.095,0 79.978,35.883 79.978,79.979 z"
   id="path129"
   inkscape:connector-curvature="0" />
			<path
   d="m -2010.562,289 c 0,3.674 -0.203,7.293 -0.61,10.858 -4.638,-0.014 -8.365,-0.229 -11.523,-0.583 -0.461,-0.041 -0.907,-0.094 -1.355,-0.149 -0.69,-0.08 -1.367,-0.176 -2.006,-0.285 0.381,-3.226 0.583,-6.507 0.583,-9.841 0,-45.6 -37.089,-82.689 -82.689,-82.689 -45.6,0 -82.688,37.089 -82.688,82.689 0,3.334 0.203,6.615 0.584,9.841 -0.639,0.108 -1.316,0.205 -2.007,0.285 -0.448,0.055 -0.896,0.108 -1.356,0.149 -3.158,0.354 -6.888,0.569 -11.521,0.583 -0.407,-3.565 -0.613,-7.185 -0.613,-10.858 0,-53.896 43.704,-97.601 97.602,-97.601 53.893,0 97.599,43.705 97.599,97.601 z"
   id="path131"
   inkscape:connector-curvature="0" />
		</g>
	</g>
	<g
   id="g139">
		<path
   stroke-miterlimit="10"
   d="m -2070.071,378.875 c -11.7,4.975 -24.577,7.726 -38.093,7.726 -13.515,0 -26.394,-2.751 -38.091,-7.726 5.883,0.528 9.977,1.436 13.989,2.33 6.197,1.396 12.064,2.697 24.102,2.697 12.051,0 17.908,-1.301 24.117,-2.697 3.999,-0.894 8.093,-1.802 13.976,-2.33 z"
   id="path137"
   inkscape:connector-curvature="0"
   style="stroke:#000000;stroke-miterlimit:10" />
	</g>
	<g
   id="g143">
		<path
   stroke-miterlimit="10"
   d="m -2037.401,356.209 c -0.733,0.773 -1.494,1.545 -2.25,2.29 -4.897,-0.975 -10.493,-1.733 -19.711,-1.733 -12.052,0 -17.907,1.301 -24.104,2.697 -6.061,1.354 -12.335,2.752 -24.698,2.752 -12.352,0 -18.625,-1.398 -24.685,-2.752 -6.208,-1.396 -12.066,-2.697 -24.115,-2.697 -9.218,0 -14.814,0.759 -19.708,1.733 -0.761,-0.745 -1.521,-1.517 -2.253,-2.29 5.329,-1.141 11.443,-2.154 21.961,-2.154 12.348,0 18.625,1.395 24.698,2.75 6.197,1.396 12.064,2.697 24.102,2.697 12.051,0 17.908,-1.302 24.117,-2.697 6.059,-1.355 12.334,-2.75 24.685,-2.75 10.516,0 16.631,1.013 21.961,2.154 z"
   id="path141"
   inkscape:connector-curvature="0"
   style="stroke:#000000;stroke-miterlimit:10" />
	</g>
	<g
   id="g147">
		<path
   stroke-miterlimit="10"
   d="m -2021.882,334.614 c -0.448,0.868 -0.921,1.722 -1.41,2.575 -4.825,-0.541 -8.431,-1.341 -11.968,-2.127 -6.196,-1.398 -12.053,-2.697 -24.103,-2.697 -12.052,0 -17.907,1.299 -24.104,2.697 -6.061,1.355 -12.335,2.751 -24.698,2.751 -12.352,0 -18.625,-1.396 -24.685,-2.751 -6.208,-1.398 -12.066,-2.697 -24.115,-2.697 -12.051,0 -17.908,1.299 -24.101,2.697 -3.539,0.786 -7.146,1.586 -11.972,2.127 -0.484,-0.854 -0.963,-1.707 -1.41,-2.575 5.18,-0.501 8.92,-1.341 12.784,-2.208 6.073,-1.357 12.349,-2.752 24.698,-2.752 12.348,0 18.625,1.395 24.698,2.752 6.197,1.394 12.064,2.695 24.102,2.695 12.051,0 17.908,-1.302 24.117,-2.695 6.059,-1.357 12.334,-2.752 24.685,-2.752 12.349,0 18.624,1.395 24.698,2.752 3.863,0.867 7.605,1.707 12.784,2.208 z"
   id="path145"
   inkscape:connector-curvature="0"
   style="stroke:#000000;stroke-miterlimit:10" />
	</g>
	<g
   id="g151">
		<path
   stroke-miterlimit="10"
   d="m -2013.004,310.688 c -0.201,0.896 -0.42,1.789 -0.651,2.686 -10.339,-0.204 -16.062,-1.479 -21.604,-2.712 -6.196,-1.396 -12.053,-2.696 -24.103,-2.696 -12.052,0 -17.907,1.3 -24.104,2.696 -6.061,1.356 -12.335,2.751 -24.698,2.751 -12.352,0 -18.625,-1.395 -24.685,-2.751 -6.208,-1.396 -12.066,-2.696 -24.115,-2.696 -12.051,0 -17.908,1.3 -24.101,2.696 -5.545,1.232 -11.265,2.508 -21.608,2.712 -0.229,-0.896 -0.447,-1.789 -0.651,-2.686 10.438,-0.161 15.902,-1.38 21.662,-2.684 6.073,-1.356 12.349,-2.751 24.698,-2.751 12.348,0 18.625,1.395 24.698,2.751 6.197,1.396 12.064,2.698 24.102,2.698 12.051,0 17.908,-1.303 24.117,-2.698 6.059,-1.356 12.334,-2.751 24.685,-2.751 12.349,0 18.624,1.395 24.698,2.751 5.76,1.305 11.223,2.523 21.66,2.684 z"
   id="path149"
   inkscape:connector-curvature="0"
   style="stroke:#000000;stroke-miterlimit:10" />
	</g>
</g>

<g
   id="g5147"
   transform="matrix(0.99487708,0,0,0.99489465,-125.75023,-187.94956)"><g
     id="g5129"><g
       id="g5127"><linearGradient
         id="linearGradient5960"
         gradientUnits="userSpaceOnUse"
         x1="201.3096"
         y1="231.7471"
         x2="245.43491"
         y2="318.3479"><stop
           offset="0"
           style="stop-color:#FCB44E"
           id="stop5946" /><stop
           offset="0.0997"
           style="stop-color:#F9A552"
           id="stop5948" /><stop
           offset="0.3602"
           style="stop-color:#F3815C"
           id="stop5950" /><stop
           offset="0.5"
           style="stop-color:#F07460"
           id="stop5952" /><stop
           offset="0.6979"
           style="stop-color:#ED6D62"
           id="stop5954" /><stop
           offset="0.9905"
           style="stop-color:#E65968"
           id="stop5956" /><stop
           offset="1"
           style="stop-color:#E65868"
           id="stop5958" /></linearGradient><path
         d="m 291.202,289 c 0,2.09 -0.101,4.15 -0.3,6.18 -3.74,-0.46 -8.23,-0.77 -14.051,-0.77 -12.35,0 -18.63,1.39 -24.689,2.75 -0.61,0.14 -1.21,0.27 -1.82,0.41 1.33,-3.03 2.07,-6.39 2.07,-9.91 0,-13.64 -11.06,-24.7 -24.7,-24.7 -13.64,0 -24.689,11.06 -24.689,24.7 0,3.46 0.709,6.75 1.99,9.74 -0.361,-0.08 -0.711,-0.16 -1.07,-0.24 -6.07,-1.36 -12.351,-2.75 -24.7,-2.75 -5.82,0 -10.31,0.31 -14.05,0.77 -0.211,-2.03 -0.301,-4.09 -0.301,-6.18 0,-34.82 28.33,-63.16 63.15,-63.16 34.83,0 63.16,28.34 63.16,63.16 z"
         id="path5091"
         style="fill:url(#SVGID_1_-9)"
         inkscape:connector-curvature="0" /><linearGradient
         id="linearGradient5977"
         gradientUnits="userSpaceOnUse"
         x1="193.94341"
         y1="216.62601"
         x2="250.4213"
         y2="327.47021"><stop
           offset="0"
           style="stop-color:#FCB44E"
           id="stop5963" /><stop
           offset="0.0997"
           style="stop-color:#F9A552"
           id="stop5965" /><stop
           offset="0.3602"
           style="stop-color:#F3815C"
           id="stop5967" /><stop
           offset="0.5"
           style="stop-color:#F07460"
           id="stop5969" /><stop
           offset="0.6979"
           style="stop-color:#ED6D62"
           id="stop5971" /><stop
           offset="0.9905"
           style="stop-color:#E65968"
           id="stop5973" /><stop
           offset="1"
           style="stop-color:#E65868"
           id="stop5975" /></linearGradient><path
         d="m 308.025,289 c 0,3.185 -0.192,6.331 -0.569,9.409 -2.073,-0.38 -3.973,-0.814 -5.91,-1.25 -0.027,0 -0.041,-0.011 -0.068,-0.011 -0.448,-0.096 -0.893,-0.203 -1.341,-0.299 -2.034,-0.448 -4.15,-0.895 -6.548,-1.275 0.217,-2.157 0.324,-4.352 0.324,-6.575 0,-36.315 -29.551,-65.866 -65.867,-65.866 -36.315,0 -65.865,29.551 -65.865,65.866 0,2.223 0.106,4.417 0.323,6.575 -2.398,0.38 -4.512,0.827 -6.544,1.275 -0.448,0.096 -0.896,0.203 -1.345,0.299 -0.026,0 -0.043,0.011 -0.067,0.011 -1.938,0.436 -3.834,0.87 -5.911,1.25 -0.379,-3.078 -0.569,-6.224 -0.569,-9.409 0,-44.096 35.884,-79.979 79.979,-79.979 44.095,0 79.978,35.883 79.978,79.979 z"
         id="path5108"
         style="fill:url(#SVGID_2_-3)"
         inkscape:connector-curvature="0" /><linearGradient
         id="linearGradient5994"
         gradientUnits="userSpaceOnUse"
         x1="186.52341"
         y1="200.5981"
         x2="255.22411"
         y2="335.43079"><stop
           offset="0"
           style="stop-color:#FCB44E"
           id="stop5980" /><stop
           offset="0.0997"
           style="stop-color:#F9A552"
           id="stop5982" /><stop
           offset="0.3602"
           style="stop-color:#F3815C"
           id="stop5984" /><stop
           offset="0.5"
           style="stop-color:#F07460"
           id="stop5986" /><stop
           offset="0.6979"
           style="stop-color:#ED6D62"
           id="stop5988" /><stop
           offset="0.9905"
           style="stop-color:#E65968"
           id="stop5990" /><stop
           offset="1"
           style="stop-color:#E65868"
           id="stop5992" /></linearGradient><path
         d="m 325.647,289 c 0,3.674 -0.203,7.293 -0.61,10.858 -4.638,-0.014 -8.365,-0.229 -11.523,-0.583 -0.461,-0.041 -0.907,-0.094 -1.355,-0.149 -0.69,-0.08 -1.367,-0.176 -2.006,-0.285 0.381,-3.226 0.583,-6.507 0.583,-9.841 0,-45.6 -37.089,-82.689 -82.689,-82.689 -45.6,0 -82.688,37.089 -82.688,82.689 0,3.334 0.203,6.615 0.584,9.841 -0.639,0.108 -1.316,0.205 -2.007,0.285 -0.448,0.055 -0.896,0.108 -1.356,0.149 -3.158,0.354 -6.888,0.569 -11.521,0.583 -0.407,-3.565 -0.613,-7.185 -0.613,-10.858 0,-53.896 43.704,-97.601 97.602,-97.601 53.894,0 97.599,43.705 97.599,97.601 z"
         id="path5125"
         style="fill:url(#SVGID_3_-0)"
         inkscape:connector-curvature="0" /></g></g><g
     id="g5133"><path
       stroke-miterlimit="10"
       d="m 266.139,378.875 c -11.7,4.975 -24.577,7.726 -38.093,7.726 -13.515,0 -26.394,-2.751 -38.091,-7.726 5.883,0.528 9.977,1.436 13.989,2.33 6.197,1.396 12.064,2.697 24.102,2.697 12.051,0 17.908,-1.301 24.117,-2.697 3.999,-0.894 8.093,-1.802 13.976,-2.33 z"
       id="path5131"
       inkscape:connector-curvature="0"
       style="fill:#e65868;stroke:#e65868;stroke-miterlimit:10" /></g><g
     id="g5137"><path
       stroke-miterlimit="10"
       d="m 298.809,356.209 c -0.733,0.773 -1.494,1.545 -2.25,2.29 -4.897,-0.975 -10.493,-1.733 -19.711,-1.733 -12.052,0 -17.907,1.301 -24.104,2.697 -6.061,1.354 -12.335,2.752 -24.698,2.752 -12.352,0 -18.625,-1.398 -24.685,-2.752 -6.208,-1.396 -12.066,-2.697 -24.115,-2.697 -9.218,0 -14.814,0.759 -19.708,1.733 -0.761,-0.745 -1.521,-1.517 -2.253,-2.29 5.329,-1.141 11.443,-2.154 21.961,-2.154 12.348,0 18.625,1.395 24.698,2.75 6.197,1.396 12.064,2.697 24.102,2.697 12.051,0 17.908,-1.302 24.117,-2.697 6.059,-1.355 12.334,-2.75 24.685,-2.75 10.516,0 16.631,1.013 21.961,2.154 z"
       id="path5135"
       inkscape:connector-curvature="0"
       style="fill:#e65868;stroke:#e65868;stroke-miterlimit:10" /></g><g
     id="g5141"><path
       stroke-miterlimit="10"
       d="m 314.328,334.614 c -0.448,0.868 -0.921,1.722 -1.41,2.575 -4.825,-0.541 -8.431,-1.341 -11.968,-2.127 -6.196,-1.398 -12.053,-2.697 -24.103,-2.697 -12.052,0 -17.907,1.299 -24.104,2.697 -6.061,1.355 -12.335,2.751 -24.698,2.751 -12.352,0 -18.625,-1.396 -24.685,-2.751 -6.208,-1.398 -12.066,-2.697 -24.115,-2.697 -12.051,0 -17.908,1.299 -24.101,2.697 -3.539,0.786 -7.146,1.586 -11.972,2.127 -0.484,-0.854 -0.963,-1.707 -1.41,-2.575 5.18,-0.501 8.92,-1.341 12.784,-2.208 6.073,-1.357 12.349,-2.752 24.698,-2.752 12.348,0 18.625,1.395 24.698,2.752 6.197,1.394 12.064,2.695 24.102,2.695 12.051,0 17.908,-1.302 24.117,-2.695 6.059,-1.357 12.334,-2.752 24.685,-2.752 12.349,0 18.624,1.395 24.698,2.752 3.863,0.867 7.605,1.707 12.784,2.208 z"
       id="path5139"
       inkscape:connector-curvature="0"
       style="fill:#e65868;stroke:#e65868;stroke-miterlimit:10" /></g><g
     id="g5145"><path
       stroke-miterlimit="10"
       d="m 323.206,310.688 c -0.201,0.896 -0.42,1.789 -0.651,2.686 -10.339,-0.204 -16.062,-1.479 -21.604,-2.712 -6.196,-1.396 -12.053,-2.696 -24.103,-2.696 -12.052,0 -17.907,1.3 -24.104,2.696 -6.061,1.356 -12.335,2.751 -24.698,2.751 -12.352,0 -18.625,-1.395 -24.685,-2.751 -6.208,-1.396 -12.066,-2.696 -24.115,-2.696 -12.051,0 -17.908,1.3 -24.101,2.696 -5.545,1.232 -11.265,2.508 -21.608,2.712 -0.229,-0.896 -0.447,-1.789 -0.651,-2.686 10.438,-0.161 15.902,-1.38 21.662,-2.684 6.073,-1.356 12.349,-2.751 24.698,-2.751 12.348,0 18.625,1.395 24.698,2.751 6.197,1.396 12.064,2.698 24.102,2.698 12.051,0 17.908,-1.303 24.117,-2.698 6.059,-1.356 12.334,-2.751 24.685,-2.751 12.349,0 18.624,1.395 24.698,2.751 5.76,1.305 11.223,2.523 21.66,2.684 z"
       id="path5143"
       inkscape:connector-curvature="0"
       style="fill:#e65868;stroke:#ff5868;stroke-miterlimit:10;stroke-opacity:1" /></g></g><g
   id="g5163"
   transform="translate(-124.41853,-188.81098)"><path
     d="m 363.073,239.978 h 27.742 c 10.821,0 16.233,6.051 16.233,18.151 v 26.12 c 0,9.249 -2.805,15.103 -8.411,17.562 l 9.888,44.123 h -13.43 l -9.297,-42.795 h -8.56 v 42.795 H 363.072 V 239.978 Z m 14.166,51.059 h 9.297 c 4.229,0 6.346,-2.557 6.346,-7.673 V 260.49 c 0,-5.114 -2.116,-7.674 -6.346,-7.674 h -9.297 z"
     id="path5149"
     inkscape:connector-curvature="0" /><path
     d="m 432.282,345.934 h -14.166 v -87.805 c 0,-12.101 5.655,-18.151 16.97,-18.151 h 10.626 c 11.312,0 16.971,6.051 16.971,18.151 v 87.805 h -14.167 v -38.811 h -16.233 v 38.811 z m 16.234,-51.65 v -35.27 c 0,-4.132 -2.066,-6.198 -6.198,-6.198 h -3.837 c -4.132,0 -6.198,2.066 -6.198,6.198 v 35.27 z"
     id="path5151"
     inkscape:connector-curvature="0" /><path
     d="m 475.224,239.978 h 25.825 c 11.411,0 17.118,6.051 17.118,18.151 v 31.433 c 0,12.004 -5.658,18.003 -16.971,18.003 H 489.39 v 38.369 H 475.223 V 239.978 Z m 14.167,54.749 h 9.002 c 3.737,0 5.607,-2.066 5.607,-6.198 v -29.514 c 0,-4.132 -2.116,-6.198 -6.346,-6.198 h -8.264 v 41.91 z"
     id="path5153"
     inkscape:connector-curvature="0" /><path
     d="M 529.381,345.934 V 239.978 h 24.645 c 13.281,0 19.922,6.789 19.922,20.365 v 70.244 c 0,10.233 -5.658,15.348 -16.971,15.348 h -27.596 z m 14.167,-12.839 h 10.625 c 3.737,0 5.607,-1.572 5.607,-4.722 V 260.49 c 0,-5.114 -2.116,-7.674 -6.346,-7.674 h -9.887 v 80.279 z"
     id="path5155"
     inkscape:connector-curvature="0" /><path
     d="M 586.49,345.934 V 239.978 h 14.167 v 105.956 z"
     id="path5157"
     inkscape:connector-curvature="0" /><path
     d="m 641.09,268.459 v -9.297 c 0,-4.229 -2.066,-6.346 -6.198,-6.346 h -2.214 c -4.035,0 -6.05,2.117 -6.05,6.346 v 17.561 c 0,1.969 0.392,3.297 1.181,3.984 0.786,0.689 2.065,1.575 3.837,2.657 l 13.429,7.231 c 2.951,1.674 5.04,2.977 6.271,3.911 1.229,0.936 2.188,2.066 2.878,3.394 0.687,1.328 1.033,3.862 1.033,7.6 v 22.578 c 0,11.905 -5.707,17.856 -17.118,17.856 h -8.707 c -11.314,0 -16.971,-6.493 -16.971,-19.479 v -5.312 h 14.167 v 5.755 c 0,4.133 2.114,6.198 6.346,6.198 h 2.509 c 3.737,0 5.607,-2.065 5.607,-6.198 v -18.004 c 0,-1.967 -0.395,-3.295 -1.181,-3.984 -0.789,-0.687 -2.066,-1.572 -3.837,-2.656 l -13.429,-7.525 c -2.952,-1.573 -5.092,-2.901 -6.42,-3.984 -1.328,-1.082 -2.287,-2.483 -2.877,-4.206 -0.591,-1.72 -0.886,-3.959 -0.886,-6.714 v -21.693 c 0,-12.101 5.656,-18.151 16.971,-18.151 h 8.854 c 11.312,0 16.971,6.051 16.971,18.151 v 10.33 H 641.09 Z"
     id="path5159"
     inkscape:connector-curvature="0" /><path
     d="M 667.06,345.934 V 239.978 h 35.122 v 12.839 h -20.955 v 32.17 h 18.594 v 12.839 h -18.594 v 35.269 h 20.955 v 12.839 z"
     id="path5161"
     inkscape:connector-curvature="0" /></g></svg>